<svg xmlns="http://www.w3.org/2000/svg" width="1280" height="720" viewBox="0 0 1280 720">
  <defs><linearGradient id="bg" x1="0" y1="0" x2="1" y2="1"><stop stop-color="#071c22"/><stop offset="1" stop-color="#123b35"/></linearGradient><filter id="shadow"><feDropShadow dx="0" dy="24" stdDeviation="24" flood-opacity=".35"/></filter></defs>
  <rect width="1280" height="720" rx="36" fill="url(#bg)"/>
  <circle cx="1120" cy="80" r="260" fill="#65d6b2" opacity=".07"/><circle cx="110" cy="710" r="250" fill="#f3c96b" opacity=".06"/>
  <text x="74" y="92" fill="#8ee1c3" font-size="19" font-weight="700" letter-spacing="3" font-family="Arial, sans-serif">TYPESCRIPT BASICS · 16</text>
  <text x="74" y="178" fill="#f4faf6" font-size="46" font-weight="700" font-family="Arial, sans-serif">Fallback only when</text>
<text x="74" y="235" fill="#f4faf6" font-size="46" font-weight="700" font-family="Arial, sans-serif">truly absent</text>
  <rect x="74" y="410" width="500" height="148" rx="22" fill="#11352f" stroke="#2f6254"/>
  <text x="105" y="453" fill="#78a99a" font-size="16" letter-spacing="2" font-family="Arial, sans-serif">WHY IT MATTERS</text>
  <text x="105" y="500" fill="#d6e8e0" font-size="22" font-weight="400" font-family="Arial, sans-serif">Nullish coalescing preserves 0, false, and</text>
<text x="105" y="531" fill="#d6e8e0" font-size="22" font-weight="400" font-family="Arial, sans-serif">empty text.</text>
  <g filter="url(#shadow)"><rect x="655" y="154" width="555" height="410" rx="25" fill="#071715" stroke="#37675a"/><rect x="655" y="154" width="555" height="62" rx="25" fill="#14372f"/><circle cx="696" cy="185" r="7" fill="#f17878"/><circle cx="721" cy="185" r="7" fill="#efc66a"/><circle cx="746" cy="185" r="7" fill="#75d29e"/><text x="782" y="192" fill="#88a99e" font-size="17" font-family="Consolas, monospace">concept.ts</text><text x="704" y="342" fill="#65d6b2" font-size="27" font-family="Consolas, monospace">value ?? fallback</text><rect x="704" y="380" width="420" height="2" fill="#315349"/><text x="704" y="435" fill="#819e94" font-size="18" font-family="Consolas, monospace">predict  →  compile  →  explain</text></g>
  <text x="74" y="654" fill="#6e9186" font-size="16" letter-spacing="1.5" font-family="Arial, sans-serif">PROGRAMMING FOCUSED  /  ORIGINAL LESSON VISUAL</text>
  </svg>